<svg version="1.1" id="Camada_1" xmlns="http://www.w3.org/2000/svg" xmlns:xlink="http://www.w3.org/1999/xlink" x="0px" y="0px"
	 viewBox="0 0 21.39 21.39" style="enable-background:new 0 0 21.39 21.39;" xml:space="preserve">
<style type="text/css">
	.st0{fill:#E83679;}
	.st1{fill:#FFFFFF;}
</style>
<g>
	<circle class="st0" cx="10.69" cy="10.69" r="10.69"/>
	<g>
		<g>
			<path class="st1" d="M10.69,5.17c1.8,0,2.01,0.01,2.72,0.04c0.66,0.03,1.01,0.14,1.25,0.23c0.31,0.12,0.54,0.27,0.77,0.5
				c0.24,0.24,0.38,0.46,0.5,0.77c0.09,0.24,0.2,0.59,0.23,1.25c0.03,0.71,0.04,0.92,0.04,2.72s-0.01,2.01-0.04,2.72
				c-0.03,0.66-0.14,1.01-0.23,1.25c-0.12,0.31-0.27,0.54-0.5,0.77c-0.24,0.24-0.46,0.38-0.77,0.5c-0.24,0.09-0.59,0.2-1.25,0.23
				c-0.71,0.03-0.92,0.04-2.72,0.04s-2.01-0.01-2.72-0.04c-0.66-0.03-1.01-0.14-1.25-0.23c-0.31-0.12-0.54-0.27-0.77-0.5
				c-0.24-0.24-0.38-0.46-0.5-0.77c-0.09-0.24-0.2-0.59-0.23-1.25c-0.03-0.71-0.04-0.92-0.04-2.72s0.01-2.01,0.04-2.72
				c0.03-0.66,0.14-1.01,0.23-1.25c0.12-0.31,0.27-0.54,0.5-0.77c0.24-0.24,0.46-0.38,0.77-0.5c0.24-0.09,0.59-0.2,1.25-0.23
				C8.68,5.18,8.9,5.17,10.69,5.17 M10.69,3.96C8.87,3.96,8.64,3.97,7.92,4C7.2,4.04,6.71,4.15,6.28,4.32
				c-0.44,0.17-0.82,0.4-1.19,0.78C4.72,5.47,4.48,5.84,4.31,6.28C4.15,6.71,4.03,7.2,4,7.92c-0.03,0.72-0.04,0.95-0.04,2.77
				S3.97,12.75,4,13.47c0.03,0.72,0.15,1.21,0.31,1.63c0.17,0.44,0.4,0.82,0.78,1.19c0.37,0.37,0.75,0.61,1.19,0.78
				c0.43,0.17,0.92,0.28,1.63,0.31c0.72,0.03,0.95,0.04,2.78,0.04c1.83,0,2.06-0.01,2.78-0.04c0.72-0.03,1.21-0.15,1.63-0.31
				c0.44-0.17,0.82-0.4,1.19-0.78c0.37-0.37,0.61-0.75,0.78-1.19c0.17-0.43,0.28-0.92,0.31-1.63c0.03-0.72,0.04-0.95,0.04-2.78
				s-0.01-2.06-0.04-2.78c-0.03-0.72-0.15-1.21-0.31-1.63c-0.17-0.44-0.4-0.82-0.78-1.19c-0.37-0.37-0.75-0.61-1.19-0.78
				C14.68,4.15,14.19,4.03,13.47,4C12.75,3.97,12.52,3.96,10.69,3.96L10.69,3.96z"/>
			<path class="st1" d="M10.69,7.24c-1.91,0-3.46,1.55-3.46,3.46s1.55,3.46,3.46,3.46s3.46-1.55,3.46-3.46S12.6,7.24,10.69,7.24z
				 M10.69,12.94c-1.24,0-2.24-1-2.24-2.24s1-2.24,2.24-2.24s2.24,1,2.24,2.24S11.93,12.94,10.69,12.94z"/>
			<circle class="st1" cx="14.29" cy="7.1" r="0.81"/>
		</g>
	</g>
</g>
</svg>
