<svg version="1.1" id="Camada_1" xmlns="http://www.w3.org/2000/svg" xmlns:xlink="http://www.w3.org/1999/xlink" x="0px" y="0px"
	 viewBox="0 0 21.39 21.39" style="enable-background:new 0 0 21.39 21.39;" xml:space="preserve">
<style type="text/css">
	.st0{fill:#396EB5;}
	.st1{fill:#FFFFFF;}
</style>
<g>
	<path class="st0" d="M21.39,10.69C21.39,4.79,16.6,0,10.69,0S0,4.79,0,10.69c0,5.34,3.91,9.76,9.02,10.56v-7.47H6.31v-3.09h2.72
		V8.34c0-2.68,1.6-4.16,4.04-4.16c1.17,0,2.39,0.21,2.39,0.21v2.63h-1.35c-1.33,0-1.74,0.82-1.74,1.67v2.01h2.97l-0.47,3.09h-2.49
		v7.47C17.48,20.46,21.39,16.03,21.39,10.69z"/>
	<path class="st1" d="M14.86,13.78l0.47-3.09h-2.96V8.69c0-0.85,0.41-1.67,1.74-1.67h1.35V4.39c0,0-1.22-0.21-2.39-0.21
		c-2.44,0-4.04,1.48-4.04,4.16v2.36H6.31v3.09h2.72v7.47c0.54,0.09,1.1,0.13,1.67,0.13s1.13-0.04,1.67-0.13v-7.47H14.86z"/>
</g>
</svg>
