<svg version="1.1" id="Camada_1" xmlns="http://www.w3.org/2000/svg" xmlns:xlink="http://www.w3.org/1999/xlink" x="0px" y="0px"
	 viewBox="0 0 21.39 21.39" style="enable-background:new 0 0 21.39 21.39;" xml:space="preserve">
<style type="text/css">
	.st0{fill:#E40425;}
	.st1{fill:#FFFFFF;}
</style>
<g>
	<path class="st0" d="M10.7,0C4.8,0,0.02,4.78,0.02,10.69c0,4.53,2.81,8.4,6.79,9.95c-0.1-0.84-0.18-2.15,0.03-3.07
		c0.19-0.84,1.25-5.31,1.25-5.31s-0.32-0.64-0.32-1.58c0-1.49,0.86-2.59,1.93-2.59c0.91,0,1.35,0.69,1.35,1.5
		c0,0.91-0.58,2.29-0.89,3.56c-0.25,1.06,0.54,1.93,1.58,1.93c1.9,0,3.36-2.01,3.36-4.89c0-2.56-1.84-4.34-4.47-4.34
		c-3.04,0-4.83,2.28-4.83,4.63c0,0.91,0.35,1.9,0.79,2.44c0.09,0.11,0.1,0.2,0.07,0.31c-0.08,0.33-0.26,1.06-0.3,1.21
		c-0.04,0.19-0.16,0.24-0.36,0.14c-1.33-0.63-2.17-2.57-2.17-4.14c0-3.37,2.45-6.46,7.06-6.46c3.7,0,6.59,2.64,6.59,6.17
		c0,3.69-2.32,6.65-5.54,6.65c-1.08,0-2.1-0.56-2.45-1.23c0,0-0.54,2.04-0.67,2.54c-0.24,0.93-0.89,2.09-1.33,2.81
		c1,0.31,2.06,0.47,3.17,0.47c5.9,0,10.69-4.78,10.69-10.69C21.39,4.78,16.6,0,10.7,0z"/>
</g>
<g>
	<path class="st1" d="M6.81,20.64c-0.1-0.84-0.18-2.15,0.03-3.07c0.19-0.84,1.25-5.31,1.25-5.31s-0.32-0.64-0.32-1.58
		c0-1.49,0.86-2.59,1.93-2.59c0.91,0,1.35,0.69,1.35,1.5c0,0.91-0.58,2.29-0.89,3.56c-0.25,1.06,0.54,1.93,1.58,1.93
		c1.9,0,3.36-2.01,3.36-4.89c0-2.56-1.84-4.34-4.47-4.34c-3.04,0-4.83,2.28-4.83,4.63c0,0.91,0.35,1.9,0.79,2.44
		c0.09,0.11,0.1,0.2,0.07,0.31c-0.08,0.33-0.26,1.06-0.3,1.21c-0.04,0.19-0.16,0.24-0.36,0.14c-1.33-0.63-2.17-2.57-2.17-4.14
		c0-3.37,2.45-6.46,7.06-6.46c3.7,0,6.59,2.64,6.59,6.17c0,3.69-2.32,6.65-5.54,6.65c-1.08,0-2.1-0.56-2.45-1.23
		c0,0-0.54,2.04-0.67,2.54c-0.24,0.93-0.89,2.09-1.33,2.81L6.81,20.64z"/>
</g>
</svg>
