<svg version="1.1" id="Camada_1" xmlns="http://www.w3.org/2000/svg" xmlns:xlink="http://www.w3.org/1999/xlink" x="0px" y="0px"
	 viewBox="0 0 21.39 21.39" style="enable-background:new 0 0 21.39 21.39;" xml:space="preserve">
<style type="text/css">
	.st0{fill:#44AD45;}
	.st1{fill-rule:evenodd;clip-rule:evenodd;fill:#FFFFFF;}
</style>
<g>
	<circle class="st0" cx="10.69" cy="10.69" r="10.69"/>
	<g>
		<g id="WA_Logo_2_">
			<g>
				<path class="st1" d="M15.84,5.68c-1.28-1.28-2.98-1.99-4.8-1.99c-3.74,0-6.78,3.04-6.78,6.78c0,1.19,0.31,2.36,0.91,3.39
					L4.2,17.38l3.6-0.94c0.99,0.54,2.11,0.83,3.24,0.83h0l0,0c3.74,0,6.78-3.04,6.78-6.78C17.82,8.67,17.12,6.96,15.84,5.68z
					 M11.04,16.11L11.04,16.11c-1.01,0-2.01-0.27-2.87-0.79l-0.21-0.12l-2.13,0.56l0.57-2.08l-0.13-0.21c-0.56-0.9-0.86-1.93-0.86-3
					c0-3.11,2.53-5.64,5.64-5.64c1.51,0,2.92,0.59,3.99,1.65s1.65,2.48,1.65,3.99C16.68,13.59,14.15,16.11,11.04,16.11z
					 M14.13,11.89c-0.17-0.09-1-0.49-1.16-0.55s-0.27-0.09-0.38,0.09c-0.11,0.17-0.44,0.55-0.54,0.66c-0.1,0.11-0.2,0.13-0.37,0.04
					c-0.17-0.09-0.72-0.26-1.36-0.84c-0.5-0.45-0.84-1-0.94-1.17c-0.1-0.17-0.01-0.26,0.07-0.35c0.08-0.08,0.17-0.2,0.25-0.3
					c0.08-0.1,0.11-0.17,0.17-0.28c0.06-0.11,0.03-0.21-0.01-0.3S9.48,7.98,9.34,7.64C9.2,7.31,9.06,7.36,8.96,7.35
					c-0.1,0-0.21-0.01-0.32-0.01s-0.3,0.04-0.45,0.21C8.03,7.72,7.59,8.14,7.59,8.97c0,0.83,0.61,1.64,0.69,1.75
					c0.09,0.11,1.19,1.83,2.9,2.56c0.4,0.17,0.72,0.28,0.97,0.36c0.41,0.13,0.78,0.11,1.07,0.07c0.33-0.05,1-0.41,1.14-0.81
					c0.14-0.4,0.14-0.74,0.1-0.81C14.41,12.02,14.3,11.98,14.13,11.89z"/>
			</g>
		</g>
	</g>
</g>
</svg>
