<svg version="1.1" id="Camada_1" xmlns="http://www.w3.org/2000/svg" xmlns:xlink="http://www.w3.org/1999/xlink" x="0px" y="0px"
	 viewBox="0 0 21.39 21.39" style="enable-background:new 0 0 21.39 21.39;" xml:space="preserve">
<style type="text/css">
	.st0{fill:#E52520;}
	.st1{fill:#FFFFFF;}
</style>
<g>
	<circle class="st0" cx="10.69" cy="10.69" r="10.69"/>
	<path class="st1" d="M17.52,7.26c-0.16-0.61-0.65-1.1-1.26-1.26c-1.11-0.3-5.57-0.3-5.57-0.3S6.24,5.7,5.12,6
		c-0.61,0.16-1.1,0.65-1.26,1.26c-0.3,1.11-0.3,3.43-0.3,3.43s0,2.32,0.3,3.43c0.16,0.61,0.65,1.1,1.26,1.26
		c1.11,0.3,5.57,0.3,5.57,0.3s4.46,0,5.57-0.3c0.61-0.16,1.1-0.65,1.26-1.26c0.3-1.11,0.3-3.43,0.3-3.43S17.82,8.37,17.52,7.26z
		 M9.27,12.83V8.55l3.7,2.14L9.27,12.83z"/>
</g>
</svg>
