<svg version="1.1" id="Camada_1" xmlns="http://www.w3.org/2000/svg" xmlns:xlink="http://www.w3.org/1999/xlink" x="0px" y="0px"
	 viewBox="0 0 21.39 21.39" style="enable-background:new 0 0 21.39 21.39;" xml:space="preserve">
<style type="text/css">
	.st0{fill:#020203;}
	.st1{fill:#FFFFFF;}
	.st2{fill:#E62057;}
	.st3{fill:#23B7C4;}
</style>
<g>
	<circle class="st0" cx="10.69" cy="10.69" r="10.69"/>
	<g>
		<g>
			<path class="st1" d="M7.84,14.99c0.01,0.01,0.03,0.02,0.04,0.03c0.12,0.08,0.2,0.2,0.32,0.29c0.35,0.28,0.75,0.44,1.2,0.46
				c1.07,0.07,2.01-0.74,2.13-1.8c0.01-0.05,0-0.1,0-0.16c0-3.2,0-6.4,0-9.6c0-0.22,0-0.22,0.22-0.22c0.49,0,0.97,0,1.46,0
				C13.25,4,13.3,4,13.34,4.03c0,0,0,0,0.01,0.01c0.02,0.02,0.03,0.06,0.04,0.09c0.19,0.86,0.64,1.55,1.35,2.07
				c0.04,0.03,0.08,0.07,0.12,0.11c0.03,0.03,0.06,0.05,0.09,0.08c0.11,0.06,0.2,0.17,0.3,0.25c0.39,0.33,0.84,0.55,1.33,0.68
				c0.04,0.01,0.09,0.01,0.13,0.05c0,0,0,0,0.01,0.01c0.03,0.03,0.02,0.07,0.02,0.11c0,0.56,0,1.13,0,1.69
				c0,0.13-0.02,0.14-0.15,0.14c-0.41,0-0.82-0.06-1.22-0.15C14.68,9,14.04,8.71,13.45,8.33c-0.03-0.02-0.06-0.06-0.1-0.05
				c-0.04,0.02-0.02,0.07-0.02,0.11c0,1.59,0.01,3.17,0,4.76c-0.01,1.11-0.36,2.1-1.09,2.95c-0.77,0.9-1.75,1.42-2.93,1.56
				c-0.91,0.11-1.77-0.05-2.59-0.46c-0.13-0.06-0.26-0.14-0.38-0.23c-0.04-0.03-0.07-0.07-0.11-0.1c-0.28-0.23-0.48-0.53-0.66-0.84
				c-0.28-0.48-0.46-0.99-0.55-1.53c-0.05-0.31-0.08-0.63-0.06-0.94c0.06-1.02,0.4-1.92,1.05-2.71c0.55-0.66,1.24-1.12,2.05-1.39
				c0.34-0.12,0.69-0.19,1.04-0.21c0.07,0,0.13-0.02,0.2-0.02c0.03,0,0.06,0,0.09,0.02c0,0,0.01,0,0.01,0.01
				c0.02,0.03,0.01,0.07,0.01,0.1c0,0.57,0,1.15,0,1.72c0,0.02,0,0.04,0,0.06c0,0.06-0.03,0.08-0.09,0.06
				c-0.16-0.04-0.32-0.06-0.48-0.07c-0.25-0.01-0.5,0.02-0.73,0.11c-0.79,0.29-1.26,0.85-1.36,1.68c-0.1,0.82,0.22,1.47,0.9,1.94
				C7.73,14.9,7.78,14.94,7.84,14.99z"/>
			<path class="st2" d="M6.36,16.98c0.03-0.01,0.05,0.02,0.07,0.03c0.51,0.31,1.06,0.52,1.66,0.61c0.3,0.05,0.6,0.07,0.9,0.05
				c1.01-0.05,1.91-0.39,2.69-1.03c0.75-0.62,1.25-1.4,1.5-2.34c0.08-0.3,0.12-0.6,0.14-0.91c0.01-0.18,0.01-0.35,0.01-0.53
				c0-1.51,0-3.03,0-4.54c0-0.03,0-0.07,0-0.1c0.04-0.01,0.06,0.02,0.08,0.03c0.54,0.37,1.12,0.64,1.75,0.82
				c0.35,0.1,0.7,0.16,1.06,0.19c0.15,0.01,0.3,0.01,0.45,0.02c0.06,0,0.07,0,0.07-0.07c0-0.07,0-0.14,0-0.22c0-0.51,0-1.02,0-1.54
				c0-0.03,0-0.06,0-0.1c0.13,0.02,0.27,0.04,0.4,0.05c0.08,0.01,0.17,0.01,0.25,0.01c0.04,0,0.06,0.01,0.05,0.06
				c0,0.02,0,0.03,0,0.05c0,0.74,0,1.48,0,2.22c0,0.01,0,0.03,0,0.04c0,0.06,0,0.07-0.07,0.06c-0.23,0-0.46-0.02-0.69-0.05
				c-0.47-0.06-0.93-0.18-1.37-0.35c-0.42-0.16-0.82-0.37-1.19-0.63c-0.02-0.02-0.05-0.03-0.08-0.05c0,0.04,0,0.07,0,0.1
				c0,1.62,0,3.23,0,4.85c0,0.86-0.22,1.66-0.68,2.39c-0.56,0.88-1.33,1.5-2.31,1.86c-0.59,0.22-1.21,0.3-1.84,0.25
				c-1.07-0.08-1.99-0.49-2.77-1.21C6.39,17.02,6.38,17,6.36,16.98z"/>
			<path class="st3" d="M13.34,4.03c-0.03,0-0.06,0-0.1,0c-0.52,0-1.04,0-1.56,0c-0.12,0-0.12,0-0.12,0.12c0,3.18,0,6.36,0,9.55
				c0,0.22-0.02,0.44-0.09,0.65c-0.24,0.74-0.74,1.24-1.51,1.41c-0.82,0.19-1.51-0.06-2.07-0.7c-0.01-0.01-0.02-0.02-0.02-0.04
				c0.16,0.06,0.32,0.13,0.48,0.16c0.53,0.11,1.04,0.02,1.5-0.26c0.54-0.33,0.85-0.81,0.96-1.43c0.02-0.12,0.02-0.24,0.02-0.35
				c0-3.19,0-6.38,0-9.56c0-0.15-0.02-0.13,0.13-0.13c0.74,0,1.47,0,2.21,0c0.02,0,0.03,0,0.05,0c0.07,0,0.08,0,0.08,0.08
				C13.31,3.69,13.31,3.86,13.34,4.03z"/>
			<path class="st3" d="M9.4,9.26C8.96,9.27,8.52,9.34,8.09,9.48c-0.62,0.2-1.16,0.53-1.64,0.97c-0.63,0.58-1.06,1.28-1.29,2.1
				C5.07,12.84,5.03,13.14,5,13.44C4.99,13.62,4.99,13.8,5,13.99c0.03,0.51,0.13,0.99,0.32,1.46c0.21,0.52,0.51,0.99,0.91,1.4
				c0.01,0.01,0.01,0.02,0.02,0.03c-0.09-0.04-0.16-0.1-0.23-0.16c-0.73-0.58-1.24-1.31-1.53-2.2c-0.1-0.31-0.16-0.63-0.19-0.95
				c-0.02-0.23-0.02-0.47-0.01-0.7c0.03-0.54,0.16-1.06,0.38-1.55c0.23-0.51,0.55-0.97,0.95-1.37c0.47-0.46,1.01-0.8,1.63-1.03
				c0.39-0.14,0.79-0.22,1.2-0.26c0.3-0.02,0.59-0.02,0.89,0.02c0.04,0,0.06,0.01,0.06,0.06C9.41,8.93,9.41,9.09,9.4,9.26z"/>
			<path class="st2" d="M7.84,14.99c-0.18-0.08-0.34-0.2-0.48-0.34C7,14.31,6.79,13.89,6.73,13.39c-0.12-1.03,0.54-1.92,1.44-2.2
				c0.39-0.12,0.77-0.12,1.16-0.02c0.02,0.01,0.04,0.02,0.07,0.01c0.01-0.03,0.01-0.06,0.01-0.1c0-0.58,0-1.16,0-1.73
				c0-0.03,0-0.06,0-0.1c0.22-0.02,0.45,0,0.67,0.03c0.03,0,0.04,0.02,0.04,0.05c0,0.02,0,0.03,0,0.05c0,0.77,0,1.53,0,2.3
				c0,0.03,0.01,0.06-0.01,0.09c-0.1-0.02-0.2-0.05-0.3-0.06c-0.59-0.08-1.13,0.06-1.6,0.42c-0.41,0.32-0.67,0.75-0.75,1.27
				c-0.09,0.55,0.02,1.06,0.34,1.52C7.82,14.95,7.83,14.97,7.84,14.99z"/>
			<path class="st2" d="M14.86,6.3c-0.22-0.13-0.42-0.3-0.6-0.48c-0.48-0.5-0.79-1.08-0.92-1.76c0-0.01,0-0.01,0-0.02
				c0.21-0.01,0.42,0,0.62,0c0.04,0,0.05,0.01,0.05,0.05c0,0.01,0,0.03,0,0.04c-0.01,0.58,0.16,1.12,0.45,1.62
				c0.1,0.18,0.22,0.34,0.35,0.5C14.84,6.26,14.86,6.27,14.86,6.3z"/>
			<path class="st3" d="M16.71,7.36c-0.59-0.13-1.11-0.39-1.57-0.8c-0.07-0.06-0.13-0.12-0.19-0.19c0.02,0,0.04,0.01,0.06,0.02
				c0.36,0.21,0.74,0.34,1.15,0.41c0.16,0.03,0.32,0.04,0.48,0.04c0.07,0,0.07,0,0.07,0.07C16.71,7.06,16.71,7.21,16.71,7.36z"/>
		</g>
	</g>
</g>
</svg>
